<svg width="27" height="27" viewBox="0 0 27 27" fill="none" xmlns="http://www.w3.org/2000/svg">
<path d="M12.3933 2.28171V12.6147C12.3933 12.7369 12.4924 12.836 12.6146 12.836H26.7751C26.8974 12.836 26.9964 12.7369 26.9964 12.6147V0.221304C26.9964 0.157035 26.9685 0.0959529 26.9199 0.0539037C26.8714 0.0118545 26.8071 -0.0069127 26.7432 0.00229386L12.5828 2.0627C12.474 2.07855 12.3933 2.17185 12.3933 2.28171Z" fill="white"/>
<path d="M10.8444 24.7822C10.8976 24.7822 10.9494 24.763 10.9899 24.7276C11.0381 24.6856 11.0657 24.6248 11.0657 24.5609V14.3851C11.0657 14.2629 10.9666 14.1638 10.8444 14.1638H0.22949C0.170798 14.1638 0.114497 14.1871 0.0729787 14.2286C0.0314607 14.2701 0.00817871 14.3264 0.00817871 14.3851L0.00870986 23.1061C0.00870986 23.2168 0.090418 23.3104 0.199923 23.3254L10.8143 24.7802C10.8243 24.7815 10.8344 24.7822 10.8444 24.7822Z" fill="white"/>
<path d="M0.230961 12.836H10.8444C10.9666 12.836 11.0657 12.7369 11.0657 12.6147V2.53898C11.0657 2.47506 11.038 2.41433 10.99 2.37228C10.9419 2.33023 10.8783 2.31094 10.8146 2.3197L0.191567 3.7623C0.0817083 3.77726 -8.84528e-05 3.87101 7.17852e-08 3.98184L0.00964925 12.6148C0.0098263 12.737 0.108885 12.836 0.230961 12.836Z" fill="white"/>
<path d="M26.7751 26.9999C26.8281 26.9999 26.8797 26.9808 26.9203 26.9456C26.9686 26.9036 26.9964 26.8427 26.9964 26.7786L27 14.3851C27 14.3264 26.9767 14.2701 26.9352 14.2286C26.8936 14.1871 26.8373 14.1638 26.7786 14.1638H12.6146C12.4924 14.1638 12.3933 14.2629 12.3933 14.3851V24.7864C12.3933 24.8967 12.4746 24.9902 12.5837 25.0056L26.7442 26.9978C26.7546 26.9992 26.7648 26.9999 26.7751 26.9999Z" fill="white"/>
</svg>
