<svg width="23" height="23" viewBox="0 0 23 23" fill="none" xmlns="http://www.w3.org/2000/svg">
<path d="M17.1768 7.88928C14.5049 6.39486 10.2165 3.99517 3.56478 0.270736C3.11632 -0.0254343 2.60035 -0.0642469 2.15454 0.086646L13.567 11.4991L17.1768 7.88928Z" fill="#32BBFF"/>
<path d="M2.15454 0.0866699C2.07099 0.114971 1.98968 0.149111 1.91192 0.19035C1.41962 0.456647 1.05786 0.969072 1.05786 1.61716V21.381C1.05786 22.0291 1.41957 22.5416 1.91192 22.8078C1.98954 22.849 2.07081 22.8833 2.15427 22.9118L13.567 11.4991L2.15454 0.0866699Z" fill="#32BBFF"/>
<path d="M13.567 11.499L2.1543 22.9117C2.60024 23.0637 3.11621 23.0278 3.5648 22.7274C10.0155 19.1152 14.2556 16.7439 16.9584 15.2368C17.0336 15.1945 17.1073 15.1532 17.1802 15.1123L13.567 11.499Z" fill="#32BBFF"/>
<path d="M1.05786 11.499V21.381C1.05786 22.029 1.41957 22.5415 1.91192 22.8077C1.98954 22.8489 2.07081 22.8832 2.15427 22.9117L13.567 11.499H1.05786Z" fill="#2C9FD9"/>
<path d="M3.56472 0.270786C3.03217 -0.0808636 2.40417 -0.070846 1.91187 0.19042L13.3937 11.6723L17.1767 7.88933C14.5048 6.39491 10.2164 3.99522 3.56472 0.270786Z" fill="#29CC5E"/>
<path d="M13.3938 11.3259L1.91187 22.8077C2.40421 23.069 3.03217 23.0841 3.56472 22.7274C10.0154 19.1152 14.2555 16.744 16.9583 15.2368C17.0335 15.1946 17.1073 15.1532 17.1801 15.1123L13.3938 11.3259Z" fill="#D93F21"/>
<path d="M21.9422 11.4992C21.9422 10.9516 21.6659 10.399 21.1182 10.0925C21.1182 10.0925 20.094 9.52105 16.9548 7.76514L13.2207 11.4992L16.9584 15.2369C20.0632 13.4936 21.1182 12.9058 21.1182 12.9058C21.6659 12.5994 21.9422 12.0468 21.9422 11.4992Z" fill="#FFD500"/>
<path d="M21.1182 12.9057C21.6659 12.5993 21.9422 12.0466 21.9422 11.499H13.2207L16.9584 15.2368C20.0633 13.4935 21.1182 12.9057 21.1182 12.9057Z" fill="#FFAA00"/>
</svg>
