<svg width="1440" height="87" viewBox="0 0 1440 87" fill="none" xmlns="http://www.w3.org/2000/svg">
<path d="M0 0L40 7.46013C80 15.0225 160 29.9428 240 29.8406C320 29.6362 400 14.3071 480 6.94916C560 -0.306594 640 0.306594 720 4.80312C800 9.19745 880 17.3729 960 16.351C1040 15.3291 1120 5.1097 1200 1.73731C1280 -1.73728 1360 1.73728 1400 3.37238L1440 5.10969V87.8866H1400C1360 87.8866 1280 87.8866 1200 87.8866C1120 87.8866 1040 87.8866 960 87.8866C880 87.8866 800 87.8866 720 87.8866C640 87.8866 560 87.8866 480 87.8866C400 87.8866 320 87.8866 240 87.8866C160 87.8866 80 87.8866 40 87.8866H0V0Z" fill="url(#paint0_linear_40_2976)"/>
<defs>
<linearGradient id="paint0_linear_40_2976" x1="720" y1="0" x2="720" y2="87.8866" gradientUnits="userSpaceOnUse">
<stop stop-color="#FDFFFF"/>
<stop offset="0.0001" stop-color="#FDFFFF"/>
<stop offset="1" stop-color="white"/>
</linearGradient>
</defs>
</svg>
