<svg width="194" height="28" viewBox="0 0 194 28" fill="none" xmlns="http://www.w3.org/2000/svg">
    <path d="M19.0865 27H14.9825L4.1105 14.904V27H0.7625V1.8H4.1105V13.176L14.6225 1.8H18.7265L7.6025 14.04L19.0865 27ZM21.7432 27V0.719999H24.8752V27H21.7432ZM31.2373 5.724C30.6373 5.724 30.1333 5.52 29.7253 5.112C29.3173 4.704 29.1133 4.212 29.1133 3.636C29.1133 3.06 29.3173 2.568 29.7253 2.16C30.1333 1.728 30.6373 1.512 31.2373 1.512C31.8133 1.512 32.3053 1.728 32.7133 2.16C33.1213 2.568 33.3253 3.06 33.3253 3.636C33.3253 4.212 33.1213 4.704 32.7133 5.112C32.3053 5.52 31.8133 5.724 31.2373 5.724ZM29.6533 27V9H32.7853V27H29.6533ZM57.0035 8.532C59.0195 8.532 60.6515 9.192 61.8995 10.512C63.1475 11.808 63.7715 13.572 63.7715 15.804V27H60.6395V15.912C60.6395 14.52 60.2795 13.44 59.5595 12.672C58.8395 11.904 57.8795 11.52 56.6795 11.52C55.3355 11.52 54.2555 11.976 53.4395 12.888C52.6475 13.776 52.2515 15.144 52.2515 16.992V27H49.1195V15.912C49.1195 14.52 48.7715 13.44 48.0755 12.672C47.4035 11.904 46.4795 11.52 45.3035 11.52C43.9835 11.52 42.8795 11.976 41.9915 12.888C41.1275 13.8 40.6955 15.168 40.6955 16.992V27H37.5635V9H40.6955V11.412C41.9195 9.492 43.7075 8.532 46.0595 8.532C48.4835 8.532 50.2475 9.552 51.3515 11.592C52.5995 9.552 54.4835 8.532 57.0035 8.532ZM83.0183 9H86.1503V27H83.0183V23.904C81.4583 26.28 79.1903 27.468 76.2143 27.468C73.6943 27.468 71.5463 26.556 69.7703 24.732C67.9943 22.884 67.1063 20.64 67.1063 18C67.1063 15.36 67.9943 13.128 69.7703 11.304C71.5463 9.456 73.6943 8.532 76.2143 8.532C79.1903 8.532 81.4583 9.72 83.0183 12.096V9ZM76.6103 24.444C78.4343 24.444 79.9583 23.832 81.1823 22.608C82.4063 21.36 83.0183 19.824 83.0183 18C83.0183 16.176 82.4063 14.652 81.1823 13.428C79.9583 12.18 78.4343 11.556 76.6103 11.556C74.8103 11.556 73.2983 12.18 72.0743 13.428C70.8503 14.652 70.2383 16.176 70.2383 18C70.2383 19.824 70.8503 21.36 72.0743 22.608C73.2983 23.832 74.8103 24.444 76.6103 24.444ZM93.5604 13.86C93.5604 14.556 93.9084 15.12 94.6044 15.552C95.3004 15.96 96.1404 16.296 97.1244 16.56C98.1084 16.8 99.0924 17.088 100.076 17.424C101.06 17.736 101.9 18.288 102.596 19.08C103.292 19.848 103.64 20.844 103.64 22.068C103.64 23.7 103.004 25.008 101.732 25.992C100.484 26.976 98.8764 27.468 96.9084 27.468C95.1564 27.468 93.6564 27.084 92.4084 26.316C91.1604 25.548 90.2724 24.528 89.7444 23.256L92.4444 21.708C92.7324 22.572 93.2724 23.256 94.0644 23.76C94.8564 24.264 95.8044 24.516 96.9084 24.516C97.9404 24.516 98.7924 24.324 99.4644 23.94C100.136 23.532 100.472 22.908 100.472 22.068C100.472 21.372 100.124 20.82 99.4284 20.412C98.7324 19.98 97.8924 19.644 96.9084 19.404C95.9244 19.14 94.9404 18.84 93.9564 18.504C92.9724 18.168 92.1324 17.616 91.4364 16.848C90.7404 16.08 90.3924 15.096 90.3924 13.896C90.3924 12.336 90.9924 11.052 92.1924 10.044C93.4164 9.036 94.9404 8.532 96.7644 8.532C98.2284 8.532 99.5244 8.868 100.652 9.54C101.804 10.188 102.668 11.1 103.244 12.276L100.616 13.752C99.9684 12.216 98.6844 11.448 96.7644 11.448C95.8764 11.448 95.1204 11.664 94.4964 12.096C93.8724 12.504 93.5604 13.092 93.5604 13.86ZM115.316 27.468C112.604 27.468 110.348 26.568 108.548 24.768C106.748 22.944 105.848 20.688 105.848 18C105.848 15.312 106.748 13.068 108.548 11.268C110.348 9.444 112.604 8.532 115.316 8.532C117.092 8.532 118.688 8.964 120.104 9.828C121.52 10.668 122.576 11.808 123.272 13.248L120.644 14.76C120.188 13.8 119.48 13.032 118.52 12.456C117.584 11.88 116.516 11.592 115.316 11.592C113.516 11.592 112.004 12.204 110.78 13.428C109.58 14.652 108.98 16.176 108.98 18C108.98 19.8 109.58 21.312 110.78 22.536C112.004 23.76 113.516 24.372 115.316 24.372C116.516 24.372 117.596 24.096 118.556 23.544C119.516 22.968 120.248 22.2 120.752 21.24L123.416 22.788C122.648 24.204 121.544 25.344 120.104 26.208C118.664 27.048 117.068 27.468 115.316 27.468ZM135.473 8.532C137.585 8.532 139.277 9.204 140.549 10.548C141.821 11.868 142.457 13.668 142.457 15.948V27H139.325V16.128C139.325 14.664 138.929 13.536 138.137 12.744C137.345 11.928 136.253 11.52 134.861 11.52C133.301 11.52 132.041 12.012 131.081 12.996C130.121 13.956 129.641 15.444 129.641 17.46V27H126.509V1.8H129.641V11.592C130.913 9.552 132.857 8.532 135.473 8.532ZM159.249 9H162.381V27H159.249V24.408C157.977 26.448 156.033 27.468 153.417 27.468C151.305 27.468 149.613 26.808 148.341 25.488C147.069 24.144 146.433 22.332 146.433 20.052V9H149.565V19.872C149.565 21.336 149.961 22.476 150.753 23.292C151.545 24.084 152.637 24.48 154.029 24.48C155.589 24.48 156.849 24 157.809 23.04C158.769 22.056 159.249 20.556 159.249 18.54V9ZM176.941 12.024H172.153V21.78C172.153 22.668 172.321 23.304 172.657 23.688C173.017 24.048 173.557 24.24 174.277 24.264C174.997 24.264 175.885 24.24 176.941 24.192V27C174.205 27.36 172.201 27.144 170.929 26.352C169.657 25.536 169.021 24.012 169.021 21.78V12.024H165.457V9H169.021V4.896L172.153 3.96V9H176.941V12.024ZM184.004 24.012H193.58V27H179.72V24.912L188.9 11.988H180.08V9H193.22V11.088L184.004 24.012Z" fill="url(#paint0_radial_394_30)"/>
        <defs>
            <radialGradient id="paint0_radial_394_30" cx="0" cy="0" r="1" gradientUnits="userSpaceOnUse" gradientTransform="translate(87 48) rotate(-29.9987) scale(112.004 812.936)">
                <stop stop-color="#71BE90"/>
                <stop offset="0.0001"/>
                <stop offset="1" stop-color="white"/>
            </radialGradient>
        </defs>
</svg>
